<?xml version="1.0" encoding="UTF-8"?>
<svg width="17px" height="17px" viewBox="0 0 17 17" version="1.1" xmlns="http://www.w3.org/2000/svg" xmlns:xlink="http://www.w3.org/1999/xlink">
    <!-- Generator: Sketch 44 (41411) - http://www.bohemiancoding.com/sketch -->
    <title>icon/standard/search</title>
    <desc>Created with Sketch.</desc>
    <defs></defs>
    <g id="Symbols" stroke="none" stroke-width="1" fill="none" fill-rule="evenodd">
        <g id="TopNavigation/Full" transform="translate(-1138.000000, -64.000000)" fill="#FFFFFF">
            <g id="Navigation-Bar">
                <g id="icon/active/search" transform="translate(1138.000000, 64.000000)">
                    <g id="search">
                        <g>
                            <path d="M16.7232778,15.3878333 L11.8990556,10.5626667 C12.7263889,9.45861111 13.2222222,8.09294444 13.2222222,6.61111111 C13.2222222,2.96555556 10.2557222,0 6.61111111,0 C2.9665,0 0,2.96555556 0,6.61111111 C0,10.2566667 2.9665,13.2222222 6.61111111,13.2222222 C8.09294444,13.2222222 9.45955556,12.7254444 10.5636111,11.8981111 L15.3878333,16.7232778 C15.572,16.9074444 15.8137778,17 16.0555556,17 C16.2973333,17 16.5391111,16.9074444 16.7232778,16.7232778 C17.0925556,16.354 17.0925556,15.7571111 16.7232778,15.3878333 L16.7232778,15.3878333 Z M6.61111111,11.3333333 C4.00727778,11.3333333 1.88888889,9.21494444 1.88888889,6.61111111 C1.88888889,4.00727778 4.00727778,1.88888889 6.61111111,1.88888889 C9.21494444,1.88888889 11.3333333,4.00727778 11.3333333,6.61111111 C11.3333333,9.21494444 9.21494444,11.3333333 6.61111111,11.3333333 L6.61111111,11.3333333 Z" id="Shape"></path>
                        </g>
                    </g>
                </g>
            </g>
        </g>
    </g>
</svg>