<!-- Generated by IcoMoon.io -->
<svg version="1.1" xmlns="http://www.w3.org/2000/svg" width="28" height="28" viewBox="0 0 28 28">
<title>arrow-down-left2</title>
<path d="M21.513 4.013l-14.513 14.513v-6.275c0-0.966-0.784-1.75-1.75-1.75s-1.75 0.784-1.75 1.75v10.5c0 0.708 0.426 1.346 1.080 1.617 0.217 0.090 0.444 0.132 0.67 0.132v0.001l10.5-0c0.966 0 1.75-0.784 1.75-1.75s-0.784-1.75-1.75-1.75h-6.275l14.513-14.513c0.342-0.342 0.513-0.79 0.513-1.237s-0.171-0.896-0.513-1.237c-0.683-0.683-1.792-0.683-2.475 0v0z"></path>
</svg>
