<!-- Generated by IcoMoon.io -->
<svg version="1.1" xmlns="http://www.w3.org/2000/svg" width="28" height="28" viewBox="0 0 28 28">
<title>arrow-up-right2</title>
<path d="M6.487 23.987l14.513-14.513v6.275c0 0.966 0.784 1.75 1.75 1.75s1.75-0.784 1.75-1.75v-10.5c0-0.708-0.426-1.346-1.080-1.617-0.217-0.090-0.444-0.132-0.67-0.132v-0.001h-10.5c-0.966 0-1.75 0.784-1.75 1.75s0.784 1.75 1.75 1.75h6.275l-14.513 14.513c-0.342 0.342-0.513 0.79-0.513 1.237s0.171 0.896 0.513 1.237c0.683 0.683 1.791 0.683 2.475 0z"></path>
</svg>
