<!-- Generated by IcoMoon.io -->
<svg version="1.1" xmlns="http://www.w3.org/2000/svg" width="28" height="28" viewBox="0 0 28 28">
<title>arrow-up-left2</title>
<path d="M23.987 21.513l-14.513-14.513h6.275c0.966 0 1.75-0.784 1.75-1.75s-0.784-1.75-1.75-1.75h-10.5c-0.708 0-1.346 0.426-1.617 1.080-0.090 0.217-0.132 0.444-0.132 0.67h-0.001v10.5c0 0.966 0.784 1.75 1.75 1.75s1.75-0.784 1.75-1.75v-6.275l14.513 14.513c0.342 0.342 0.79 0.513 1.237 0.513s0.896-0.171 1.237-0.513c0.683-0.683 0.683-1.791 0-2.475z"></path>
</svg>
